<svg width="26" height="26" viewBox="0 0 26 26" fill="none" xmlns="http://www.w3.org/2000/svg">
<g clip-path="url(#clip0_118_111)">
<path d="M3.51929 22.9784C3.51929 23.6 3.76622 24.1961 4.20576 24.6357C4.64529 25.0752 5.24144 25.3222 5.86304 25.3222H19.9255C20.5471 25.3222 21.1433 25.0752 21.5828 24.6357C22.0224 24.1961 22.2693 23.6 22.2693 22.9784V6.57215H3.51929V22.9784ZM16.8005 10.4784C16.8005 10.2712 16.8828 10.0725 17.0294 9.92597C17.1759 9.77946 17.3746 9.69715 17.5818 9.69715C17.789 9.69715 17.9877 9.77946 18.1342 9.92597C18.2807 10.0725 18.363 10.2712 18.363 10.4784V21.4159C18.363 21.6231 18.2807 21.8218 18.1342 21.9683C17.9877 22.1148 17.789 22.1972 17.5818 22.1972C17.3746 22.1972 17.1759 22.1148 17.0294 21.9683C16.8828 21.8218 16.8005 21.6231 16.8005 21.4159V10.4784ZM12.113 10.4784C12.113 10.2712 12.1953 10.0725 12.3419 9.92597C12.4884 9.77946 12.6871 9.69715 12.8943 9.69715C13.1015 9.69715 13.3002 9.77946 13.4467 9.92597C13.5932 10.0725 13.6755 10.2712 13.6755 10.4784V21.4159C13.6755 21.6231 13.5932 21.8218 13.4467 21.9683C13.3002 22.1148 13.1015 22.1972 12.8943 22.1972C12.6871 22.1972 12.4884 22.1148 12.3419 21.9683C12.1953 21.8218 12.113 21.6231 12.113 21.4159V10.4784ZM7.42554 10.4784C7.42554 10.2712 7.50785 10.0725 7.65436 9.92597C7.80087 9.77946 7.99959 9.69715 8.20679 9.69715C8.41399 9.69715 8.6127 9.77946 8.75921 9.92597C8.90573 10.0725 8.98804 10.2712 8.98804 10.4784V21.4159C8.98804 21.6231 8.90573 21.8218 8.75921 21.9683C8.6127 22.1148 8.41399 22.1972 8.20679 22.1972C7.99959 22.1972 7.80087 22.1148 7.65436 21.9683C7.50785 21.8218 7.42554 21.6231 7.42554 21.4159V10.4784ZM23.0505 1.88465H17.1912L16.7322 0.971566C16.635 0.776358 16.4852 0.612153 16.2997 0.497425C16.1143 0.382696 15.9005 0.321996 15.6824 0.322152H10.1013C9.88373 0.321316 9.67031 0.38179 9.4855 0.496646C9.30069 0.611502 9.15198 0.776095 9.0564 0.971566L8.59741 1.88465H2.73804C2.53084 1.88465 2.33212 1.96696 2.18561 2.11347C2.0391 2.25999 1.95679 2.4587 1.95679 2.6659L1.95679 4.2284C1.95679 4.4356 2.0391 4.63432 2.18561 4.78083C2.33212 4.92734 2.53084 5.00965 2.73804 5.00965H23.0505C23.2577 5.00965 23.4565 4.92734 23.603 4.78083C23.7495 4.63432 23.8318 4.4356 23.8318 4.2284V2.6659C23.8318 2.4587 23.7495 2.25999 23.603 2.11347C23.4565 1.96696 23.2577 1.88465 23.0505 1.88465Z" fill="#777777"/>
</g>
<defs>
<clipPath id="clip0_118_111">
<rect width="25" height="25" fill="white" transform="translate(0.394287 0.322144)"/>
</clipPath>
</defs>
</svg>
